<svg id="LOGO_FINAL" data-name="LOGO FINAL"  width="32" height="64" viewBox="142 220 110 110" fill="none" xmlns="http://www.w3.org/2000/svg">
  <defs>
    <style>.cls-1{font-size:88.88px;font-family:Calibri;}.cls-1,.cls-9{fill:#fff;}.cls-2{letter-spacing:0em;}.cls-3{letter-spacing:0.01em;}.cls-4{letter-spacing:-0.01em;}.cls-5{letter-spacing:-0.01em;}.cls-6{letter-spacing:-0.01em;}.cls-7{letter-spacing:0em;}.cls-8{letter-spacing:-0.02em;}</style>
  </defs>
  <path className="cls-9" d="M2686.35,894.26a24.28,24.28,0,1,0,24.27,24.28A24.28,24.28,0,0,0,2686.35,894.26Zm0,42.48a18.21,18.21,0,1,1,18.21-18.2A18.2,18.2,0,0,1,2686.35,936.74Z" transform="translate(-2523 -624.68)" />
  <path className="cls-9" d="M2751.76,894.26A24.28,24.28,0,1,0,2776,918.54,24.28,24.28,0,0,0,2751.76,894.26Zm0,42.48a18.21,18.21,0,1,1,18.21-18.2A18.2,18.2,0,0,1,2751.76,936.74Z" transform="translate(-2523 -624.68)" />
  <path className="cls-9" d="M2720.74,864.59l-29.67,16.18h0a11.73,11.73,0,0,0,5.76,11.67l16.06,9.27a2.29,2.29,0,0,1,1.14,1.92l.64,21.65.19.29a5,5,0,0,0,8.58-.29h0l.64-28.4A2.18,2.18,0,0,0,2723,895l-8.48-5.08a1.6,1.6,0,0,1,0-2.73l9.18-5.8a2.24,2.24,0,0,1,2.7.22l9.53,8.4a2.35,2.35,0,0,0,1.56.59h22a4.78,4.78,0,0,0-.22-7.79l-.46-.3h-18.21L2726,864.59h0a4.25,4.25,0,0,0-4.65-.34Z" transform="translate(-2523 -624.68)" />
  <circle className="cls-9" cx="218.98" cy="238.9" r="10.12" />
  <path className="cls-9" d="M2569.93,881.05v11.5s.07,2.44,1.34,3.64l16.2,22.71h0a3.78,3.78,0,0,0,5.08-3.46V915l-11.28-20V882.32" transform="translate(-2523 -624.68)" />
  <circle className="cls-9" cx="52.51" cy="236.99" r="6.56" />
  <path className="cls-9" d="M2581.39,885.54s6.85,1.58,9.9,1.88a3.64,3.64,0,0,0,2.05-.4l.65-.32a2.33,2.33,0,0,0,.59-3.72l-.22-.21a2.57,2.57,0,0,0-1.22-.69c-2.12-.51-8.37-2.16-9.8-4,0,0-5-6.45-8.09-6.67,0,0-4.13-.6-6.82,2.25l-6.45,5s-2.48,2.7-2.78,5.47l-1.32,7.52a3,3,0,0,0,.24,1.83l.11.22a2.24,2.24,0,0,0,3.75.48l.08-.1a3.37,3.37,0,0,0,.76-1.76c.25-2.21,1.12-7.53,3.86-8.81l3.25-2.22v.52" transform="translate(-2523 -624.68)" />
  <path className="cls-9" d="M2570.07,893.26l-3.07,9.53a9,9,0,0,1-1.2,2.62l-7.64,8.25-.27.58a3.62,3.62,0,0,0,4.65,4.88l.71-.29,8.1-7.72s2-3.53,2.17-3.83l-.15.3,3.37-7.41" transform="translate(-2523 -624.68)" />
  <polygon className="cls-9" points="27.55 276.68 0.39 318.66 17.67 318.66 34.95 276.68 27.55 276.68" />
  <path className="cls-9" d="M2548.67,943.34h16.74l2.55-14.41s-10-.55-12.86-6.24Z" transform="translate(-2523 -624.68)" />
  <path className="cls-9" d="M2571.59,943.34v-19.5l4.84-8.26s7.18,13.52,11.26,15.3v12.46Z" transform="translate(-2523 -624.68)" />
  <polygon className="cls-9" points="79.17 282.64 98.02 318.66 115.99 318.66 84.58 277.24 75.57 277.24 79.17 282.64" />
  <path className="cls-9" d="M2851,810.57a29.69,29.69,0,0,0-50.49,22.71h59.29A29.61,29.61,0,0,0,2851,810.57Z" transform="translate(-2523 -624.68)" />
  <path className="cls-9" d="M2815.07,702.22l-1-18.23c-.83,0-1.66,0-2.5,0l-.39-6.94c.5,0,1-.1,1.51-.12.33,0,.67,0,1,0l-1-18c-.85,0-1.7,0-2.55,0l-.46-8.12c.59,0,1.17-.11,1.77-.14.26,0,.53,0,.8,0l-.59-11c-102.54,6.51-181.68,91.85-181.37,193.67h66.41A129.07,129.07,0,0,1,2815.07,702.22Z" transform="translate(-2523 -624.68)" />
  <path className="cls-9" d="M2811.49,650.6c-.6,0-1.18.1-1.77.14l.46,8.12c.85,0,1.7,0,2.55,0l-.44-8.33C2812,650.58,2811.75,650.58,2811.49,650.6Z" transform="translate(-2523 -624.68)" />
  <path className="cls-9" d="M2812.7,676.9c-.51,0-1,.09-1.51.12l.39,6.94c.84,0,1.67,0,2.5,0l-.38-7.12C2813.37,676.88,2813,676.88,2812.7,676.9Z" transform="translate(-2523 -624.68)" />
  <path className="cls-9" d="M2814.08,684l1,18.23c1.26-.1,2.51-.23,3.78-.3a129.11,129.11,0,0,1,135.86,122c.17,3.14.19,6.26.13,9.37h11.56c0-3.24,0-6.5-.18-9.78C2961.84,745.06,2894.69,684.48,2814.08,684Z" transform="translate(-2523 -624.68)" />
  <path className="cls-9" d="M2812.73,658.9l1,18a154.16,154.16,0,0,1,161.53,145.37c.21,3.71.24,7.38.18,11h16.05c0-3.66,0-7.34-.24-11C2986.09,730.28,2907.27,659.29,2812.73,658.9Z" transform="translate(-2523 -624.68)" />
  <path className="cls-9" d="M3017.38,822.43c-5.75-106.8-97-188.72-203.79-183-.64,0-1.26.11-1.89.15l.59,10.95c99.18-5.1,183.94,70.93,189.48,170.19q.36,6.32.26,12.53h15.63C3017.66,829.68,3017.58,826.07,3017.38,822.43Z" transform="translate(-2523 -624.68)" />
  <path className="cls-9" d="M2891.57,891.47v-9.21a5.54,5.54,0,0,1,5.53-5.53v-12.5a13.34,13.34,0,0,0-13.3-13.31H2833a13.34,13.34,0,0,0-13.3,13.31v12.5a5.53,5.53,0,0,1,5.52,5.53v9.21a5.54,5.54,0,0,1-5.52,5.53v23.56a13.34,13.34,0,0,0,13.3,13.3h50.8a13.34,13.34,0,0,0,13.3-13.3V897A5.55,5.55,0,0,1,2891.57,891.47Zm-58.79-29.55a1.78,1.78,0,0,1,1.78-1.78h46a1.78,1.78,0,0,1,1.78,1.78v5.65a1.78,1.78,0,0,1-1.78,1.78h-46a1.78,1.78,0,0,1-1.78-1.78Zm4.42,60.88a4.61,4.61,0,1,1,4.61-4.61A4.6,4.6,0,0,1,2837.2,922.8Zm42.39,0a4.61,4.61,0,1,1,4.61-4.61A4.6,4.6,0,0,1,2879.59,922.8Zm7.73-21.92a3.51,3.51,0,0,1-3.5,3.49h-52.5a3.51,3.51,0,0,1-3.5-3.49v-22.5a3.51,3.51,0,0,1,3.5-3.5h52.5a3.51,3.51,0,0,1,3.5,3.5Z" transform="translate(-2523 -624.68)" />
  <path className="cls-9" d="M2897.1,876.73V897h3.09a2.45,2.45,0,0,0,2.44-2.44v-12.3A5.54,5.54,0,0,0,2897.1,876.73Z" transform="translate(-2523 -624.68)" />
  <path className="cls-9" d="M2891.57,882.26v9.21a5.55,5.55,0,0,0,5.53,5.53V876.73A5.54,5.54,0,0,0,2891.57,882.26Z" transform="translate(-2523 -624.68)" />
  <path className="cls-9" d="M2814.17,882.26v12.3a2.45,2.45,0,0,0,2.44,2.44h3.09V876.73A5.54,5.54,0,0,0,2814.17,882.26Z" transform="translate(-2523 -624.68)" />
  <path className="cls-9" d="M2825.22,891.47v-9.21a5.53,5.53,0,0,0-5.52-5.53V897A5.54,5.54,0,0,0,2825.22,891.47Z" transform="translate(-2523 -624.68)" />
  <rect className="cls-9" x="305.91" y="303.65" width="14.74" height="14.74" rx="4.71" />
  <rect className="cls-9" x="348.3" y="303.65" width="14.74" height="14.74" rx="4.71" />
  <path className="cls-9" d="M3015.58,926.47h-2.06V910.91a3.69,3.69,0,0,0-3.89-3.45H3007l-.11-50.74a2.16,2.16,0,0,0-1.13-1.86l-4.22-2.47a1.18,1.18,0,0,0-1.81.87v16.13l-.23-.74a11.52,11.52,0,0,0-9.23-7.64h-29.83l-.67.16a13.06,13.06,0,0,0-9.51,8.22l.07-17.25a.48.48,0,0,0-.75-.36l-5.83,3.5a.79.79,0,0,0-.4.67v51.19h-3.92a3.42,3.42,0,0,0-3.61,3.2v16h-1.57a2.2,2.2,0,0,0-2.32,2.06v8.2H2940l.08,5a1.83,1.83,0,0,0,1.38,1.7l.81.24h9.45l.16-.07a2.09,2.09,0,0,0,1.3-1.87V936.5h43.65V942a2.23,2.23,0,0,0,1.82,1.53l.36.07h9.46a2.33,2.33,0,0,0,1.45-2.09v-5h8.73v-7.34A2.87,2.87,0,0,0,3015.58,926.47Zm-64.26-49h47.29v14.2h-47.29Zm1.09,45.17h-6.55a2.28,2.28,0,1,1,0-4.52h6.55a2.28,2.28,0,1,1,0,4.52Zm36.74-1.52a3,3,0,0,1-3.17,2.81h-22a3,3,0,0,1-3.17-2.81V903.5a3,3,0,0,1,3.17-2.81h22a3,3,0,0,1,3.17,2.81Zm14.91,1.52h-6.54a2.28,2.28,0,1,1,0-4.52h6.54a2.28,2.28,0,1,1,0,4.52Z" transform="translate(-2523 -624.68)" />
  <path className="cls-9" d="M2696.74,833.28H2546.3l-4.32-1.85c-25.25-10.82-25.32-46.58-.12-57.5h166.65S2695.18,802.3,2696.74,833.28Z" transform="translate(-2523 -624.68)" />
  <path className="cls-9" d="M2589.42,941.11l-.9-20.52s2-5.82,2-10.09c0,0,.21-5.46,0-9l17.69,39.61Z" transform="translate(-2523 -624.68)" />
</svg>